<?xml version="1.0" encoding="UTF-8"?>
<svg id="Layer_1" xmlns="http://www.w3.org/2000/svg" version="1.1" viewBox="0 0 917.42 308.99">
  <!-- Generator: Adobe Illustrator 29.2.1, SVG Export Plug-In . SVG Version: 2.1.0 Build 116)  -->
  <g id="B-Large">
    <path id="S" d="M142.81,115.97c0,4.78-.61,9.08-1.82,12.89-1.21,3.82-2.81,7.18-4.79,10.1-1.99,2.92-4.31,5.4-6.98,7.45-2.67,2.05-5.43,3.72-8.29,5.03s-5.76,2.27-8.71,2.89-5.73.93-8.33.93H10.51v-24.21h93.38c4.66,0,8.27-1.37,10.85-4.1s3.86-6.39,3.86-10.99c0-2.23-.34-4.28-1.02-6.14s-1.66-3.48-2.93-4.84-2.82-2.42-4.66-3.17-3.86-1.12-6.1-1.12h-55.68c-3.91,0-8.13-.7-12.66-2.09-4.53-1.4-8.74-3.65-12.62-6.75-3.88-3.1-7.11-7.17-9.68-12.2-2.58-5.03-3.86-11.17-3.86-18.43s1.29-13.39,3.86-18.39c2.58-5,5.8-9.06,9.68-12.2s8.08-5.4,12.62-6.8c4.53-1.4,8.75-2.09,12.66-2.09h82.4v24.21H48.22c-4.59,0-8.18,1.4-10.75,4.19s-3.86,6.49-3.86,11.08,1.29,8.33,3.86,11.03,6.16,4.05,10.75,4.05h55.86c2.61.06,5.37.42,8.29,1.07,2.92.65,5.82,1.66,8.71,3.03s5.63,3.09,8.24,5.17c2.61,2.08,4.92,4.58,6.94,7.49s3.62,6.27,4.79,10.06,1.77,8.07,1.77,12.85Z"/>
    <path id="p" d="M270.54,121.28c0,4.16-.53,7.9-1.58,11.22s-2.45,6.24-4.19,8.75-3.76,4.66-6.05,6.42c-2.3,1.77-4.7,3.21-7.22,4.33s-5.04,1.94-7.59,2.47-4.97.79-7.26.79h-43.67v-24.21h43.67c3.23,0,5.65-.84,7.26-2.51,1.61-1.68,2.42-4.1,2.42-7.26v-32.59c0-3.35-.82-5.83-2.47-7.45s-4.05-2.42-7.22-2.42h-43.48c-3.29,0-5.77.82-7.45,2.47-1.68,1.64-2.51,4.05-2.51,7.22v98.23h-24.21v-98.23c0-4.16.53-7.88,1.58-11.17,1.06-3.29,2.47-6.19,4.24-8.71s3.8-4.66,6.1-6.42c2.3-1.77,4.7-3.21,7.22-4.33s5.06-1.94,7.63-2.47c2.58-.53,4.98-.79,7.22-.79h43.67c4.16,0,7.88.53,11.17,1.58,3.29,1.06,6.19,2.45,8.71,4.19s4.66,3.76,6.42,6.05c1.77,2.3,3.21,4.7,4.33,7.22s1.94,5.04,2.47,7.59.79,4.97.79,7.26v32.77Z"/>
    <path id="e" d="M399.49,87.95c0,3.35-.59,6.97-1.77,10.85-1.18,3.88-3.09,7.48-5.73,10.8s-6.08,6.1-10.33,8.33c-4.25,2.23-9.42,3.35-15.5,3.35h-43.67v-23h43.67c3.29,0,5.83-1.01,7.63-3.03,1.8-2.02,2.7-4.52,2.7-7.49,0-3.17-1.01-5.65-3.03-7.45-2.02-1.8-4.45-2.7-7.31-2.7h-43.67c-3.29,0-5.83,1.01-7.63,3.03-1.8,2.02-2.7,4.52-2.7,7.49v33.8c0,3.23,1.01,5.74,3.03,7.54,2.02,1.8,4.52,2.7,7.49,2.7h43.48v23.09h-43.67c-3.35,0-6.97-.59-10.85-1.77-3.88-1.18-7.48-3.09-10.8-5.73-3.32-2.64-6.1-6.08-8.33-10.33-2.23-4.25-3.35-9.42-3.35-15.5v-33.98c0-3.35.59-6.97,1.77-10.85,1.18-3.88,3.09-7.48,5.73-10.8,2.64-3.32,6.08-6.1,10.33-8.33,4.25-2.23,9.42-3.35,15.5-3.35h43.67c3.35,0,6.97.59,10.85,1.77s7.48,3.09,10.8,5.73,6.1,6.08,8.33,10.33c2.23,4.25,3.35,9.42,3.35,15.5Z"/>
    <path id="j" d="M441.24,159.22c0,4.16-.53,7.9-1.58,11.22-1.06,3.32-2.45,6.24-4.19,8.75s-3.76,4.66-6.05,6.42-4.7,3.21-7.22,4.33c-2.51,1.12-5.04,1.94-7.59,2.47-2.54.53-4.97.79-7.26.79h-43.67v-24.21h43.67c3.23,0,5.65-.84,7.26-2.51s2.42-4.1,2.42-7.26V48.89h24.21v110.33ZM441.24,28.23h-24.21V6.35h24.21v21.88Z"/>
    <path id="s" d="M561.72,115.56c0,4.16-.53,7.9-1.58,11.22-1.06,3.32-2.45,6.24-4.19,8.75-1.74,2.51-3.76,4.66-6.05,6.42-2.3,1.77-4.7,3.21-7.22,4.33-2.51,1.12-5.06,1.94-7.63,2.47-2.58.53-5.01.79-7.31.79h-65.55v-24.21h65.36c3.29,0,5.77-.84,7.45-2.51s2.51-4.1,2.51-7.26c-.31-6.46-3.57-9.68-9.78-9.68h-37.52c-5.34,0-9.87-.93-13.59-2.79-3.72-1.86-6.75-4.19-9.08-6.98-2.33-2.79-4-5.8-5.03-9.03s-1.54-6.24-1.54-9.03c0-5.4.96-9.95,2.89-13.64s4.34-6.69,7.26-8.98,6.08-3.96,9.5-4.98,6.61-1.54,9.59-1.54h59.49v24.21h-59.31c-1.24,0-2.22.14-2.93.42s-1.24.65-1.58,1.12-.54.96-.61,1.49-.09,1.04-.09,1.54c.06.99.25,1.77.56,2.33s.7.96,1.16,1.21.99.39,1.58.42,1.16.05,1.72.05h37.52c6.21,0,11.48,1.12,15.83,3.35,4.34,2.23,7.85,5.04,10.52,8.43s4.61,7.06,5.82,11.03,1.82,7.67,1.82,11.08Z"/>
    <path id="S1" data-name="S" d="M419.43,263.22c0,4.78-.61,9.08-1.82,12.89-1.21,3.82-2.81,7.18-4.79,10.1-1.99,2.92-4.31,5.4-6.98,7.45-2.67,2.05-5.43,3.72-8.29,5.03-2.86,1.3-5.76,2.27-8.71,2.89s-5.73.93-8.33.93h-93.38v-24.21h93.38c4.66,0,8.27-1.37,10.85-4.1,2.58-2.73,3.86-6.39,3.86-10.99,0-2.23-.34-4.28-1.02-6.14s-1.66-3.48-2.93-4.84-2.82-2.42-4.66-3.17c-1.83-.74-3.86-1.12-6.1-1.12h-55.68c-3.91,0-8.13-.7-12.66-2.09-4.53-1.4-8.74-3.65-12.62-6.75-3.88-3.1-7.11-7.17-9.68-12.2-2.58-5.03-3.86-11.17-3.86-18.43s1.29-13.39,3.86-18.39c2.58-5,5.8-9.06,9.68-12.2s8.08-5.4,12.62-6.8c4.53-1.4,8.75-2.09,12.66-2.09h82.4v24.21h-82.4c-4.59,0-8.18,1.4-10.75,4.19-2.58,2.79-3.86,6.49-3.86,11.08s1.29,8.33,3.86,11.03c2.58,2.7,6.16,4.05,10.75,4.05h55.86c2.61.06,5.37.42,8.29,1.07s5.82,1.66,8.71,3.03,5.63,3.09,8.24,5.17c2.61,2.08,4.92,4.58,6.94,7.49s3.62,6.27,4.79,10.06c1.18,3.79,1.77,8.07,1.77,12.85Z"/>
    <path id="t" d="M524.08,226.07h-42.27v76.44h-24.49v-76.44h-31.47v-24.21h31.47v-32.87h24.49v32.87h42.27v24.21Z"/>
    <path id="u" d="M650.05,290.31c0,1.74-.31,3.35-.93,4.84s-1.47,2.78-2.56,3.86-2.36,1.94-3.82,2.56-3.03.93-4.7.93h-54.75c-2.98,0-6.16-.34-9.54-1.02-3.38-.68-6.72-1.78-10.01-3.31-3.29-1.52-6.47-3.44-9.54-5.77s-5.76-5.15-8.05-8.47-4.14-7.15-5.54-11.5c-1.4-4.34-2.09-9.25-2.09-14.71v-55.86h24.21v55.86c0,3.17.54,6.01,1.63,8.52s2.56,4.67,4.42,6.47,4.05,3.18,6.56,4.14c2.51.96,5.23,1.44,8.15,1.44h42.36v-76.44h24.21v88.45Z"/>
    <path id="d" d="M783.19,268.52c0,4.16-.53,7.9-1.58,11.22s-2.45,6.24-4.19,8.75c-1.74,2.51-3.76,4.66-6.05,6.42-2.3,1.77-4.7,3.21-7.22,4.33-2.51,1.12-5.06,1.94-7.63,2.47-2.58.53-5.01.79-7.31.79h-43.67c-4.16,0-7.88-.53-11.17-1.58-3.29-1.06-6.19-2.47-8.71-4.24s-4.66-3.8-6.42-6.1c-1.77-2.3-3.21-4.7-4.33-7.22-1.12-2.51-1.94-5.06-2.47-7.63s-.79-4.98-.79-7.22v-32.77c0-6.21,1.13-11.47,3.4-15.78,2.27-4.31,5.09-7.82,8.47-10.52s7.06-4.64,11.03-5.82c3.97-1.18,7.63-1.77,10.99-1.77h43.67v24.21h-43.48c-3.23,0-5.68.82-7.36,2.47s-2.51,4.05-2.51,7.22v32.59c0,3.29.82,5.77,2.47,7.45s4.05,2.51,7.22,2.51h43.67c3.29,0,5.74-.84,7.36-2.51,1.61-1.68,2.42-4.1,2.42-7.26v-109.21h24.21v109.21Z"/>
    <path id="bodka" d="M831.84,215.61h-24.21v-21.88h24.21v21.88Z"/>
    <path id="o" d="M915.01,236.1c0,2.8-.33,5.31-.98,7.55-.66,2.23-1.52,4.2-2.6,5.89-1.08,1.69-2.33,3.13-3.76,4.32-1.43,1.19-2.92,2.16-4.49,2.91-1.56.75-3.14,1.3-4.75,1.66-1.6.35-3.12.53-4.54.53h-27.15c-2.08,0-4.36-.4-6.83-1.19-2.47-.79-4.76-2.1-6.86-3.91-2.1-1.82-3.86-4.17-5.27-7.08-1.41-2.9-2.11-6.46-2.11-10.68v-22.04c0-4.17.7-7.71,2.11-10.61,1.41-2.9,3.16-5.26,5.27-7.08,2.1-1.82,4.39-3.12,6.86-3.91,2.47-.79,4.75-1.19,6.83-1.19h27.15c3.86,0,7.14.75,9.84,2.25,2.7,1.5,4.88,3.39,6.54,5.67s2.87,4.75,3.62,7.42c.75,2.67,1.13,5.16,1.13,7.45v22.04ZM896.96,215.85c0-1.91-.44-3.32-1.32-4.24-.88-.92-2.16-1.38-3.82-1.38h-22.89c-1.7,0-2.99.47-3.87,1.41-.88.94-1.32,2.31-1.32,4.11v18.67c0,1.8.44,3.18,1.32,4.14s2.17,1.43,3.87,1.43h22.89c1.73,0,3.02-.48,3.87-1.43.85-.95,1.27-2.33,1.27-4.14v-18.56Z"/>
    <path id="_čiara" data-name="čiara" d="M915.01,302.51h-107.38v-21.88h107.38v21.88Z"/>
  </g>
</svg>