<?xml version="1.0" encoding="UTF-8" standalone="no"?>
<!DOCTYPE svg PUBLIC "-//W3C//DTD SVG 1.1//EN" "http://www.w3.org/Graphics/SVG/1.1/DTD/svg11.dtd">
<svg width="100%" height="100%" viewBox="0 0 800 800" version="1.1" xmlns="http://www.w3.org/2000/svg" xmlns:xlink="http://www.w3.org/1999/xlink" xml:space="preserve" xmlns:serif="http://www.serif.com/" style="fill-rule:evenodd;clip-rule:evenodd;stroke-linejoin:round;stroke-miterlimit:2;">
    <g transform="matrix(25,0,0,25,0,0)">
        <path d="M6,2L26,2C28.2,2 30,3.8 30,6L30,26C30,28.2 28.2,30 26,30L6,30C3.8,30 2,28.2 2,26L2,6C2,3.8 3.8,2 6,2ZM20,6L12,6C8.7,6 6,8.7 6,12L6,20C6,23.3 8.7,26 12,26L20,26C23.3,26 26,23.3 26,20L26,12C26,8.7 23.3,6 20,6ZM24.1,20C24.1,22.3 22.2,24.1 20,24.1L12,24.1C9.7,24.1 7.9,22.2 7.9,20L7.9,12C7.9,9.7 9.8,7.9 12,7.9L20,7.9C22.3,7.9 24.1,9.8 24.1,12L24.1,20ZM21.3,9.7C20.7,9.7 20.1,10.2 20.1,10.9C20.1,11.6 20.6,12.1 21.3,12.1C22,12.1 22.5,11.6 22.5,10.9C22.4,10.2 21.9,9.7 21.3,9.7ZM16,11.2C13.3,11.2 11.1,13.4 11.1,16.1C11.1,18.8 13.3,21 16,21C18.7,21 20.9,18.8 20.9,16.1C21,13.4 18.8,11.2 16,11.2ZM16,19.3C14.3,19.3 12.8,17.9 12.8,16.1C12.8,14.4 14.2,12.9 16,12.9C17.7,12.9 19.2,14.3 19.2,16.1C19.2,17.9 17.8,19.3 16,19.3Z" style="fill:rgb(21,21,21);"/>
    </g>
</svg>
